Jump_normalized_Motion_pl07
version=1
nRows=22
nColumns=43
inDegrees=yes
endheader
time		pelvis_tilt		pelvis_list		pelvis_rotation		pelvis_tx		pelvis_ty		pelvis_tz		hip_flexion_r		hip_adduction_r		hip_rotation_r		knee_angle_r		ankle_angle_r		subtalar_angle_r		mtp_angle_r		hip_flexion_l		hip_adduction_l		hip_rotation_l		knee_angle_l		ankle_angle_l		subtalar_angle_l		mtp_angle_l		lumbar_extension		lumbar_bending		lumbar_rotation		neck_flexion		neck_lateral_bending		neck_rotation		arm_flex_r		arm_add_r		arm_rot_r		elbow_flex_r		pro_sup_r		wrist_flex_r		wrist_dev_r		hand_finger_flex_r		arm_flex_l		arm_add_l		arm_rot_l		elbow_flex_l		pro_sup_l		wrist_flex_l		wrist_dev_l		hand_finger_flex_l		
2.385833		-3.663098		-22.035712		89.005683		-0.011111		1.593318		1.633240		96.735233		-10.056374		15.362698		-144.550208		27.701527		14.591511		18.115476		91.391459		-3.865090		4.980779		-143.351560		30.377474		11.221149		14.727837		-46.789354		-3.731801		-4.015342		38.218134		7.057808		-1.628955		90.987125		-20.111249		25.956172		72.451462		88.296530		-9.538430		-6.531401		-12.229717		99.774426		-18.272268		33.128619		63.798921		91.875435		-11.272782		-1.080511		-7.362261		
2.388510		-3.648638		-22.176788		89.055245		-0.011206		1.594213		1.630985		96.445059		-10.068787		15.374112		-144.456545		27.648499		14.655984		18.124946		91.064785		-3.849296		4.952691		-143.210779		30.395368		11.235090		14.848672		-46.594593		-3.729977		-4.113357		38.323606		7.050070		-1.577999		92.094939		-19.587849		26.066696		72.120458		87.716194		-9.384254		-6.637108		-12.599524		100.792658		-17.913141		33.118430		63.658186		91.766747		-11.090069		-1.275717		-7.761622		
2.391187		-3.625530		-22.237657		89.121085		-0.011292		1.595117		1.628709		96.092997		-10.086162		15.409406		-144.405463		27.569232		14.727437		18.138711		90.656302		-3.851435		4.932476		-143.085008		30.429650		11.245368		15.022753		-46.478890		-3.710103		-4.228312		38.386304		7.060264		-1.515918		93.311859		-19.092901		26.312744		71.687666		86.970730		-9.116808		-6.775079		-13.097943		101.899148		-17.637982		33.229194		63.482687		91.624930		-10.781643		-1.523260		-8.294347		
2.393864		-3.597850		-22.568783		89.166261		-0.011354		1.595549		1.626537		96.049626		-10.055887		15.423566		-144.340791		27.475316		14.755161		18.139051		90.558595		-3.871354		4.932296		-142.953359		30.456749		11.252342		15.065563		-46.040957		-3.729047		-4.275889		38.389412		7.132326		-1.551957		94.321664		-18.653349		26.372197		71.439773		86.917394		-9.019619		-6.692784		-13.185935		102.849810		-17.232429		33.203895		63.390203		91.604180		-10.707258		-1.502073		-8.394684		
2.396540		-3.566525		-22.816942		89.213007		-0.011412		1.596125		1.624310		95.911004		-10.021102		15.430306		-144.272005		27.345096		14.781794		18.138460		90.366370		-3.892755		4.932804		-142.828399		30.488794		11.280041		15.124315		-45.696780		-3.741280		-4.347731		38.345040		7.202007		-1.536088		95.358680		-18.177937		26.421919		71.139834		86.820965		-8.884480		-6.631659		-13.285840		103.853853		-16.884897		33.243447		63.273555		91.562701		-10.601894		-1.531125		-8.505251		
2.399217		-3.523156		-22.802333		89.275211		-0.011429		1.597340		1.621826		95.420232		-10.018202		15.395939		-144.158878		27.204449		14.753321		18.157326		89.826483		-3.913189		4.948144		-142.652525		30.521621		11.388915		15.391992		-45.675330		-3.723386		-4.497701		38.276540		7.262752		-1.353057		96.476497		-17.592430		26.454866		70.695501		86.389542		-8.469052		-6.849036		-13.758639		104.976297		-16.716971		33.454839		63.137197		91.172677		-10.385416		-1.847830		-8.974381		
2.401894		-3.486331		-23.018446		89.330425		-0.011466		1.598142		1.619371		95.192175		-10.005015		15.377287		-144.043623		27.089736		14.760025		18.164125		89.546367		-3.943094		4.954629		-142.466327		30.522131		11.437452		15.530162		-45.369272		-3.729298		-4.582028		38.222981		7.330335		-1.293951		97.445165		-17.140542		26.476348		70.439343		86.198265		-8.276927		-6.910856		-14.010949		105.910242		-16.400777		33.476006		63.052496		90.974362		-10.311519		-1.964645		-9.220694		
2.404571		-3.449536		-23.339170		89.378799		-0.011505		1.598650		1.616971		95.112183		-9.981102		15.369708		-143.953024		26.948850		14.795301		18.158068		89.412193		-3.986474		4.961778		-142.311721		30.507461		11.460950		15.576562		-44.926978		-3.746685		-4.626427		38.169343		7.417514		-1.283705		98.367935		-16.767504		26.521398		70.251225		86.149516		-8.227951		-6.850167		-14.091739		106.787107		-16.005768		33.428270		62.962257		90.928350		-10.310015		-1.960235		-9.292556		
2.407247		-3.365507		-23.433838		89.429357		-0.011512		1.599528		1.614412		94.787193		-9.952125		15.315986		-143.867741		26.628710		14.833190		18.141190		89.036803		-4.044378		5.036437		-142.190507		30.485737		11.580932		15.772736		-44.739935		-3.736871		-4.668512		37.992304		7.573917		-1.121677		99.439062		-16.465655		26.777739		69.951118		85.797636		-8.044809		-6.914283		-14.373355		107.867664		-15.774561		33.694055		62.787520		90.745087		-10.236603		-2.155645		-9.484412		
2.409924		-3.329233		-23.730838		89.470731		-0.011560		1.600169		1.611807		94.648840		-9.956955		15.268018		-143.738808		26.533531		14.860163		18.136811		88.847756		-4.081029		5.027066		-142.025937		30.473348		11.626892		15.841005		-44.321606		-3.758026		-4.722410		38.017843		7.634727		-1.102496		100.284952		-16.076195		26.753739		69.778246		85.652113		-8.038642		-6.919566		-14.488048		108.671485		-15.378131		33.569855		62.707720		90.665809		-10.302303		-2.214182		-9.578801		
2.412601		-3.214504		-23.788080		89.539103		-0.011619		1.601146		1.609093		94.267379		-9.954454		15.190386		-143.638026		26.182014		14.925050		18.118898		88.411505		-4.135633		5.132426		-141.902155		30.477667		11.778557		16.117360		-44.170482		-3.711250		-4.733131		37.896221		7.766480		-0.952981		101.378812		-15.838631		27.097961		69.435630		84.957938		-7.886082		-7.085625		-14.840791		109.715258		-15.140288		33.815712		62.498970		90.506306		-10.340247		-2.499995		-9.781074		
2.415278		-3.179859		-24.113873		89.580975		-0.011688		1.601763		1.606366		94.149759		-9.962578		15.137198		-143.497133		26.102462		14.957339		18.116814		88.232668		-4.166385		5.108513		-141.740702		30.474512		11.807191		16.174729		-43.703058		-3.728465		-4.777475		37.942080		7.810976		-0.960673		102.167319		-15.456006		27.032820		69.244277		84.794278		-7.918560		-7.072898		-14.935333		110.457892		-14.735973		33.632880		62.413420		90.466185		-10.432874		-2.529461		-9.847515		
2.417955		-3.099672		-24.331646		89.651509		-0.011766		1.602449		1.603570		93.946287		-9.957577		15.102843		-143.401830		25.854783		15.013854		18.110563		87.943110		-4.222326		5.143105		-141.599890		30.501881		11.855225		16.294141		-43.343826		-3.698767		-4.795624		37.899167		7.887246		-0.911317		103.081645		-15.137862		27.138311		68.937312		84.392401		-7.875866		-7.081920		-15.079605		111.299337		-14.398914		33.612311		62.257146		90.474877		-10.507041		-2.626977		-9.914347		
2.420631		-2.963382		-24.381656		89.743804		-0.011872		1.603497		1.600590		93.515219		-9.947633		14.992657		-143.269237		25.465733		15.080475		18.112193		87.445679		-4.261330		5.226383		-141.462888		30.561451		11.949371		16.560899		-43.177916		-3.613106		-4.790073		37.764622		7.943600		-0.774753		104.086479		-14.866595		27.413204		68.567144		83.447484		-7.750485		-7.238254		-15.389094		112.225929		-14.156112		33.753227		62.053469		90.520267		-10.610029		-2.911444		-10.007675		
2.423308		-2.908137		-24.693468		89.806781		-0.011983		1.604083		1.597689		93.381479		-9.936278		14.958971		-143.149713		25.356582		15.091494		18.115584		87.233064		-4.292461		5.195257		-141.324984		30.585216		11.946791		16.627148		-42.702352		-3.600606		-4.811897		37.802922		7.986259		-0.784488		104.854246		-14.494751		27.351996		68.298659		83.221768		-7.775069		-7.198879		-15.497486		112.935624		-13.759673		33.568932		61.934017		90.507875		-10.705383		-2.935031		-10.048677		
2.425985		-2.794539		-24.862499		89.900500		-0.012109		1.604868		1.594652		93.100749		-9.910515		14.892183		-143.039705		25.007967		15.092165		18.122985		86.846694		-4.332442		5.210134		-141.196185		30.663701		11.902099		16.772987		-42.369767		-3.522538		-4.804879		37.697742		8.008609		-0.709159		105.721398		-14.163338		27.441586		67.950285		82.669779		-7.662377		-7.183561		-15.706353		113.706050		-13.456203		33.536191		61.765004		90.551311		-10.791502		-3.086323		-10.071876		
2.428662		-2.685028		-25.018841		89.986009		-0.012305		1.605805		1.591503		92.777742		-9.898875		14.783812		-142.877906		24.670907		15.076433		18.137910		86.420388		-4.363079		5.216995		-141.049201		30.727443		11.853242		16.930999		-42.059933		-3.433843		-4.802579		37.596913		8.009159		-0.619788		106.546131		-13.824834		27.514965		67.636307		82.059775		-7.531338		-7.199056		-15.955922		114.446645		-13.167387		33.488575		61.618708		90.586123		-10.893790		-3.283979		-10.093379		
2.431338		-2.610519		-25.304430		90.070450		-0.012389		1.606487		1.588390		92.605011		-9.877002		14.730529		-142.769567		24.452216		15.084347		18.139640		86.141866		-4.412252		5.173004		-140.893821		30.769902		11.811816		16.983532		-41.592055		-3.392235		-4.827360		37.594788		8.043329		-0.605296		107.258010		-13.452449		27.448092		67.338739		81.861539		-7.519942		-7.132261		-16.086717		115.089789		-12.805129		33.324319		61.480993		90.563738		-10.991428		-3.338692		-10.126938		
2.434015		-2.501650		-25.523864		90.168664		-0.012410		1.607247		1.585181		92.380433		-9.852467		14.658411		-142.671831		24.063503		15.094580		18.134291		85.775776		-4.466546		5.148579		-140.747406		30.845613		11.728488		17.045482		-41.181675		-3.324335		-4.842200		37.511803		8.063805		-0.546489		107.980511		-13.067037		27.408863		66.997873		81.597396		-7.453487		-7.057251		-16.250892		115.727153		-12.493142		33.207277		61.324877		90.545093		-11.092931		-3.466557		-10.162137		
2.436692		-2.329805		-25.570656		90.297486		-0.012521		1.608372		1.581726		91.940903		-9.848100		14.483491		-142.525540		23.442861		15.038063		18.145589		85.196855		-4.503807		5.192152		-140.598056		30.920973		11.578120		17.168188		-40.962549		-3.161507		-4.844253		37.298185		7.995113		-0.364481		108.729446		-12.657989		27.392547		66.620653		81.002407		-7.181741		-7.096115		-16.650083		116.365970		-12.327719		33.190593		61.199055		90.499985		-11.239973		-3.915934		-10.202886		
2.439369		-2.215277		-25.753160		90.406565		-0.012553		1.609233		1.578306		91.648497		-9.843384		14.355454		-142.407354		23.083095		15.023001		18.158242		84.779964		-4.566953		5.185234		-140.435591		30.945106		11.514323		17.241545		-40.586357		-3.070932		-4.876976		37.223707		7.989303		-0.300835		109.382586		-12.278591		27.298554		66.300543		80.645627		-7.060844		-7.117593		-16.937411		116.935785		-12.072037		33.068430		61.082610		90.445205		-11.373723		-4.158255		-10.245688		
2.442045		-1.981347		-25.751276		90.592060		-0.012625		1.610455		1.574709		91.090780		-9.856217		14.062088		-142.253374		22.605782		14.867091		18.293029		84.175441		-4.622407		5.324017		-140.265779		30.949890		11.469191		17.491035		-40.414031		-2.834465		-4.898442		37.099433		7.885872		-0.091092		110.141194		-11.846673		27.290458		65.740698		79.579818		-6.398997		-7.496207		-18.062712		117.554068		-11.956771		33.087818		60.870933		90.326290		-11.610309		-4.877371		-10.275788		
